<mxfile host="app.diagrams.net" agent="Mozilla/5.0 (Windows NT 10.0; Win64; x64) AppleWebKit/537.36 (KHTML, like Gecko) Chrome/129.0.0.0 Safari/537.36" version="24.8.0">
  <diagram name="Страница — 1" id="DBfNGPCAm8npYGf04Stk">
    <mxGraphModel dx="1235" dy="624" grid="1" gridSize="10" guides="1" tooltips="1" connect="1" arrows="1" fold="1" page="1" pageScale="1" pageWidth="827" pageHeight="1169" math="0" shadow="0">
      <root>
        <mxCell id="0" />
        <mxCell id="1" parent="0" />
        <mxCell id="tEno1RM-TlnqYUzjt_Lj-1" value="Start" style="ellipse;whiteSpace=wrap;html=1;" parent="1" vertex="1">
          <mxGeometry x="310" y="10" width="90" height="60" as="geometry" />
        </mxCell>
        <mxCell id="tEno1RM-TlnqYUzjt_Lj-2" value="" style="endArrow=classic;html=1;rounded=0;" parent="1" edge="1">
          <mxGeometry width="50" height="50" relative="1" as="geometry">
            <mxPoint x="361" y="70" as="sourcePoint" />
            <mxPoint x="361" y="110" as="targetPoint" />
          </mxGeometry>
        </mxCell>
        <mxCell id="tEno1RM-TlnqYUzjt_Lj-3" value="&amp;nbsp;long long cubes[5];&amp;nbsp;&lt;div&gt;const long long MAX_VALUE = 1000000000000;&lt;/div&gt;" style="rounded=0;whiteSpace=wrap;html=1;" parent="1" vertex="1">
          <mxGeometry x="300" y="110" width="120" height="60" as="geometry" />
        </mxCell>
        <mxCell id="tEno1RM-TlnqYUzjt_Lj-4" value="" style="endArrow=classic;html=1;rounded=0;exitX=0.5;exitY=1;exitDx=0;exitDy=0;" parent="1" source="tEno1RM-TlnqYUzjt_Lj-3" edge="1">
          <mxGeometry width="50" height="50" relative="1" as="geometry">
            <mxPoint x="390" y="170" as="sourcePoint" />
            <mxPoint x="360" y="210" as="targetPoint" />
          </mxGeometry>
        </mxCell>
        <mxCell id="mdDmuukfi3EaGE5O80lq-16" style="edgeStyle=orthogonalEdgeStyle;rounded=0;orthogonalLoop=1;jettySize=auto;html=1;strokeColor=default;startArrow=block;startFill=1;endArrow=none;endFill=0;" parent="1" source="tEno1RM-TlnqYUzjt_Lj-5" edge="1">
          <mxGeometry relative="1" as="geometry">
            <mxPoint x="740" y="235" as="targetPoint" />
          </mxGeometry>
        </mxCell>
        <mxCell id="mdDmuukfi3EaGE5O80lq-23" style="edgeStyle=orthogonalEdgeStyle;rounded=0;orthogonalLoop=1;jettySize=auto;html=1;endArrow=none;endFill=0;" parent="1" source="tEno1RM-TlnqYUzjt_Lj-5" edge="1">
          <mxGeometry relative="1" as="geometry">
            <mxPoint x="120" y="790" as="targetPoint" />
          </mxGeometry>
        </mxCell>
        <mxCell id="mdDmuukfi3EaGE5O80lq-24" value="False" style="edgeLabel;html=1;align=center;verticalAlign=middle;resizable=0;points=[];" parent="mdDmuukfi3EaGE5O80lq-23" connectable="0" vertex="1">
          <mxGeometry x="-0.8338" y="4" relative="1" as="geometry">
            <mxPoint as="offset" />
          </mxGeometry>
        </mxCell>
        <mxCell id="tEno1RM-TlnqYUzjt_Lj-5" value="i&amp;lt;5" style="rhombus;whiteSpace=wrap;html=1;" parent="1" vertex="1">
          <mxGeometry x="300" y="210" width="120" height="50" as="geometry" />
        </mxCell>
        <mxCell id="tEno1RM-TlnqYUzjt_Lj-7" value="" style="endArrow=classic;html=1;rounded=0;exitX=0.5;exitY=1;exitDx=0;exitDy=0;" parent="1" source="tEno1RM-TlnqYUzjt_Lj-5" edge="1">
          <mxGeometry width="50" height="50" relative="1" as="geometry">
            <mxPoint x="390" y="270" as="sourcePoint" />
            <mxPoint x="360" y="300" as="targetPoint" />
          </mxGeometry>
        </mxCell>
        <mxCell id="mdDmuukfi3EaGE5O80lq-22" value="True" style="edgeLabel;html=1;align=center;verticalAlign=middle;resizable=0;points=[];" parent="tEno1RM-TlnqYUzjt_Lj-7" connectable="0" vertex="1">
          <mxGeometry x="-0.02" y="-5" relative="1" as="geometry">
            <mxPoint as="offset" />
          </mxGeometry>
        </mxCell>
        <mxCell id="tEno1RM-TlnqYUzjt_Lj-9" value="cin &amp;gt;&amp;gt; cubes[i];" style="shape=parallelogram;perimeter=parallelogramPerimeter;whiteSpace=wrap;html=1;fixedSize=1;" parent="1" vertex="1">
          <mxGeometry x="300" y="300" width="120" height="50" as="geometry" />
        </mxCell>
        <mxCell id="tEno1RM-TlnqYUzjt_Lj-10" value="" style="endArrow=classic;html=1;rounded=0;exitX=0.5;exitY=1;exitDx=0;exitDy=0;" parent="1" source="tEno1RM-TlnqYUzjt_Lj-9" edge="1">
          <mxGeometry width="50" height="50" relative="1" as="geometry">
            <mxPoint x="390" y="370" as="sourcePoint" />
            <mxPoint x="360" y="410" as="targetPoint" />
          </mxGeometry>
        </mxCell>
        <mxCell id="tEno1RM-TlnqYUzjt_Lj-14" style="edgeStyle=orthogonalEdgeStyle;rounded=0;orthogonalLoop=1;jettySize=auto;html=1;exitX=0;exitY=0.5;exitDx=0;exitDy=0;" parent="1" source="tEno1RM-TlnqYUzjt_Lj-11" edge="1">
          <mxGeometry relative="1" as="geometry">
            <mxPoint x="250" y="500" as="targetPoint" />
          </mxGeometry>
        </mxCell>
        <mxCell id="mdDmuukfi3EaGE5O80lq-2" value="True" style="edgeLabel;html=1;align=center;verticalAlign=middle;resizable=0;points=[];" parent="tEno1RM-TlnqYUzjt_Lj-14" connectable="0" vertex="1">
          <mxGeometry x="-0.3429" relative="1" as="geometry">
            <mxPoint x="1" as="offset" />
          </mxGeometry>
        </mxCell>
        <mxCell id="mdDmuukfi3EaGE5O80lq-3" style="edgeStyle=orthogonalEdgeStyle;rounded=0;orthogonalLoop=1;jettySize=auto;html=1;exitX=1;exitY=0.5;exitDx=0;exitDy=0;" parent="1" source="tEno1RM-TlnqYUzjt_Lj-11" edge="1">
          <mxGeometry relative="1" as="geometry">
            <mxPoint x="560" y="500" as="targetPoint" />
          </mxGeometry>
        </mxCell>
        <mxCell id="mdDmuukfi3EaGE5O80lq-4" value="False" style="edgeLabel;html=1;align=center;verticalAlign=middle;resizable=0;points=[];" parent="mdDmuukfi3EaGE5O80lq-3" connectable="0" vertex="1">
          <mxGeometry x="-0.1208" y="3" relative="1" as="geometry">
            <mxPoint as="offset" />
          </mxGeometry>
        </mxCell>
        <mxCell id="tEno1RM-TlnqYUzjt_Lj-11" value="(cubes[i] &lt;= 0 || cubes[i] &gt; MAX_VALUE)" style="rhombus;whiteSpace=wrap;html=1;" parent="1" vertex="1">
          <mxGeometry x="272.5" y="410" width="175" height="80" as="geometry" />
        </mxCell>
        <mxCell id="mdDmuukfi3EaGE5O80lq-20" style="edgeStyle=orthogonalEdgeStyle;rounded=0;orthogonalLoop=1;jettySize=auto;html=1;endArrow=none;endFill=0;" parent="1" source="mdDmuukfi3EaGE5O80lq-5" edge="1">
          <mxGeometry relative="1" as="geometry">
            <mxPoint x="250" y="710" as="targetPoint" />
          </mxGeometry>
        </mxCell>
        <mxCell id="mdDmuukfi3EaGE5O80lq-5" value="cout &amp;lt;&amp;lt; &quot;ERROR&quot; &amp;lt;&amp;lt; endl;" style="shape=parallelogram;perimeter=parallelogramPerimeter;whiteSpace=wrap;html=1;fixedSize=1;" parent="1" vertex="1">
          <mxGeometry x="180" y="500" width="140" height="40" as="geometry" />
        </mxCell>
        <mxCell id="mdDmuukfi3EaGE5O80lq-7" style="edgeStyle=orthogonalEdgeStyle;rounded=0;orthogonalLoop=1;jettySize=auto;html=1;" parent="1" source="mdDmuukfi3EaGE5O80lq-6" edge="1">
          <mxGeometry relative="1" as="geometry">
            <mxPoint x="680" y="590" as="targetPoint" />
          </mxGeometry>
        </mxCell>
        <mxCell id="mdDmuukfi3EaGE5O80lq-10" value="False" style="edgeLabel;html=1;align=center;verticalAlign=middle;resizable=0;points=[];" parent="mdDmuukfi3EaGE5O80lq-7" connectable="0" vertex="1">
          <mxGeometry x="-0.4269" y="-1" relative="1" as="geometry">
            <mxPoint as="offset" />
          </mxGeometry>
        </mxCell>
        <mxCell id="mdDmuukfi3EaGE5O80lq-8" style="edgeStyle=orthogonalEdgeStyle;rounded=0;orthogonalLoop=1;jettySize=auto;html=1;" parent="1" source="mdDmuukfi3EaGE5O80lq-6" edge="1">
          <mxGeometry relative="1" as="geometry">
            <mxPoint x="450" y="590" as="targetPoint" />
          </mxGeometry>
        </mxCell>
        <mxCell id="mdDmuukfi3EaGE5O80lq-12" value="True" style="edgeLabel;html=1;align=center;verticalAlign=middle;resizable=0;points=[];" parent="mdDmuukfi3EaGE5O80lq-8" connectable="0" vertex="1">
          <mxGeometry x="-0.571" y="-3" relative="1" as="geometry">
            <mxPoint as="offset" />
          </mxGeometry>
        </mxCell>
        <mxCell id="mdDmuukfi3EaGE5O80lq-6" value="(i &amp;gt; 0 &amp;amp;&amp;amp; cubes[i] &amp;gt; cubes[i - 1])" style="rhombus;whiteSpace=wrap;html=1;" parent="1" vertex="1">
          <mxGeometry x="490" y="500" width="140" height="80" as="geometry" />
        </mxCell>
        <mxCell id="mdDmuukfi3EaGE5O80lq-18" style="edgeStyle=orthogonalEdgeStyle;rounded=0;orthogonalLoop=1;jettySize=auto;html=1;endArrow=none;endFill=0;" parent="1" edge="1">
          <mxGeometry relative="1" as="geometry">
            <mxPoint x="449" y="660" as="targetPoint" />
            <mxPoint x="449" y="599.9999999999998" as="sourcePoint" />
          </mxGeometry>
        </mxCell>
        <mxCell id="mdDmuukfi3EaGE5O80lq-11" value="cout &amp;lt;&amp;lt; &quot;LOSS&quot; &amp;lt;&amp;lt; endl;" style="shape=parallelogram;perimeter=parallelogramPerimeter;whiteSpace=wrap;html=1;fixedSize=1;" parent="1" vertex="1">
          <mxGeometry x="390" y="590" width="130" height="60" as="geometry" />
        </mxCell>
        <mxCell id="mdDmuukfi3EaGE5O80lq-14" style="edgeStyle=orthogonalEdgeStyle;rounded=0;orthogonalLoop=1;jettySize=auto;html=1;endArrow=none;endFill=0;" parent="1" source="mdDmuukfi3EaGE5O80lq-13" edge="1">
          <mxGeometry relative="1" as="geometry">
            <mxPoint x="740" y="230" as="targetPoint" />
          </mxGeometry>
        </mxCell>
        <mxCell id="mdDmuukfi3EaGE5O80lq-13" value="i++" style="rounded=0;whiteSpace=wrap;html=1;" parent="1" vertex="1">
          <mxGeometry x="640" y="590" width="80" height="40" as="geometry" />
        </mxCell>
        <mxCell id="mdDmuukfi3EaGE5O80lq-21" style="edgeStyle=orthogonalEdgeStyle;rounded=0;orthogonalLoop=1;jettySize=auto;html=1;endArrow=none;endFill=0;startArrow=block;startFill=1;exitX=0;exitY=0.5;exitDx=0;exitDy=0;" parent="1" edge="1" source="mdDmuukfi3EaGE5O80lq-27">
          <mxGeometry relative="1" as="geometry">
            <mxPoint x="250" y="630" as="targetPoint" />
            <mxPoint x="620" y="800" as="sourcePoint" />
          </mxGeometry>
        </mxCell>
        <mxCell id="mdDmuukfi3EaGE5O80lq-26" value="" style="endArrow=classic;html=1;rounded=0;" parent="1" target="mdDmuukfi3EaGE5O80lq-28" edge="1">
          <mxGeometry width="50" height="50" relative="1" as="geometry">
            <mxPoint x="114" y="790" as="sourcePoint" />
            <mxPoint x="244" y="870" as="targetPoint" />
          </mxGeometry>
        </mxCell>
        <mxCell id="mdDmuukfi3EaGE5O80lq-32" style="edgeStyle=orthogonalEdgeStyle;rounded=0;orthogonalLoop=1;jettySize=auto;html=1;startArrow=block;startFill=1;endArrow=none;endFill=0;" parent="1" source="mdDmuukfi3EaGE5O80lq-27" edge="1">
          <mxGeometry relative="1" as="geometry">
            <mxPoint x="664" y="870" as="targetPoint" />
          </mxGeometry>
        </mxCell>
        <mxCell id="mdDmuukfi3EaGE5O80lq-34" style="edgeStyle=orthogonalEdgeStyle;rounded=0;orthogonalLoop=1;jettySize=auto;html=1;startArrow=block;startFill=1;endArrow=none;endFill=0;" parent="1" edge="1">
          <mxGeometry relative="1" as="geometry">
            <mxPoint x="663" y="730" as="targetPoint" />
            <mxPoint x="663" y="730" as="sourcePoint" />
            <Array as="points">
              <mxPoint x="663" y="660" />
              <mxPoint x="663" y="660" />
            </Array>
          </mxGeometry>
        </mxCell>
        <mxCell id="mdDmuukfi3EaGE5O80lq-27" value="End" style="rounded=1;whiteSpace=wrap;html=1;" parent="1" vertex="1">
          <mxGeometry x="614" y="730" width="100" height="40" as="geometry" />
        </mxCell>
        <mxCell id="mdDmuukfi3EaGE5O80lq-31" style="edgeStyle=orthogonalEdgeStyle;rounded=0;orthogonalLoop=1;jettySize=auto;html=1;endArrow=none;endFill=0;" parent="1" source="mdDmuukfi3EaGE5O80lq-28" edge="1">
          <mxGeometry relative="1" as="geometry">
            <mxPoint x="664" y="870" as="targetPoint" />
            <Array as="points">
              <mxPoint x="494" y="870" />
              <mxPoint x="494" y="871" />
            </Array>
          </mxGeometry>
        </mxCell>
        <mxCell id="mdDmuukfi3EaGE5O80lq-28" value="cout &amp;lt;&amp;lt; &quot;WIN&quot; &amp;lt;&amp;lt; endl;" style="shape=parallelogram;perimeter=parallelogramPerimeter;whiteSpace=wrap;html=1;fixedSize=1;" parent="1" vertex="1">
          <mxGeometry x="194" y="760" width="150" height="60" as="geometry" />
        </mxCell>
        <mxCell id="mdDmuukfi3EaGE5O80lq-33" value="" style="endArrow=none;html=1;rounded=0;endFill=0;" parent="1" edge="1">
          <mxGeometry width="50" height="50" relative="1" as="geometry">
            <mxPoint x="447" y="660" as="sourcePoint" />
            <mxPoint x="661" y="660" as="targetPoint" />
          </mxGeometry>
        </mxCell>
      </root>
    </mxGraphModel>
  </diagram>
</mxfile>
